<svg fill="#4989D6" width="17" height="13" viewBox="0 0 17 13" version="1.1" xmlns="http://www.w3.org/2000/svg"
     xmlns:xlink="http://www.w3.org/1999/xlink">
    <g id="Canvas" transform="translate(-5659 -132)">
        <g id="Vector">
            <path transform="translate(5661 134)"
                  d="M 14.1211 0.996546C 14.6715 0.377372 14.6157 -0.570737 13.9965 -1.12111C 13.3774 -1.67149 12.4293 -1.61572 11.8789 -0.996546L 14.1211 0.996546ZM 5 9L 4.06296 10.1713C 4.68623 10.6699 5.59083 10.5931 6.12111 9.99655L 5 9ZM 0.937043 3.8287C 0.29015 3.31118 -0.653789 3.41606 -1.1713 4.06296C -1.68882 4.70985 -1.58394 5.65379 -0.937043 6.1713L 0.937043 3.8287ZM 11.8789 -0.996546L 3.87889 8.00345L 6.12111 9.99655L 14.1211 0.996546L 11.8789 -0.996546ZM 5.93704 7.8287L 0.937043 3.8287L -0.937043 6.1713L 4.06296 10.1713L 5.93704 7.8287Z"/>
        </g>
    </g>
</svg>
